<svg xmlns="http://www.w3.org/2000/svg" xmlns:xlink="http://www.w3.org/1999/xlink" width="183" height="62" viewBox="0 0 183 62">
    <defs>
        <path id="vequ3vng3a" d="M0 0.176L0 32.254 32.31 32.254 32.31 0.176z"/>
    </defs>
    <g fill="none" fill-rule="evenodd">
        <g>
            <g>
                <g>
                    <path fill="#FFD92F" d="M176.222 48.473L183 48.473 183 41.709 176.222 41.709z" transform="translate(-509 -53) translate(478 53) translate(31)"/>
                    <g>
                        <path fill="#FFF" d="M174.528 20.018c-.792 0-1.422-.628-1.422-1.418 0-.79.63-1.419 1.422-1.419.796 0 1.42.628 1.42 1.419 0 .79-.624 1.418-1.42 1.418m0-3.109c-.933 0-1.695.76-1.695 1.691 0 .93.762 1.69 1.695 1.69s1.694-.76 1.694-1.69c0-.931-.761-1.69-1.694-1.69" transform="translate(-509 -53) translate(478 53) translate(31) translate(0 .218)"/>
                        <path fill="#FFF" d="M174.612 18.2c.127 0 .252.047.334.129l.147-.108c-.116-.113-.302-.185-.481-.185-.36 0-.649.25-.649.564 0 .314.29.564.649.564.18 0 .365-.074.48-.185l-.146-.11c-.082.081-.207.129-.334.129-.256 0-.457-.174-.457-.398 0-.226.2-.4.457-.4" transform="translate(-509 -53) translate(478 53) translate(31) translate(0 .218)"/>
                        <g fill="#000">
                            <path d="M19.565 13.531L16.4 21.941 13.483 13.345 8.828 0.173 0.015 0.173 12.242 30.166 6.532 43.4 14.848 43.4 33.53 0.173 25.151 0.173z" transform="translate(-509 -53) translate(478 53) translate(31) translate(0 .218) translate(71.167 16.91)"/>
                        </g>
                        <g transform="translate(-509 -53) translate(478 53) translate(31) translate(0 .218) translate(0 16.91)">
                            <mask id="y29nqzrz9b" fill="#fff">
                                <use xlink:href="#vequ3vng3a"/>
                            </mask>
                            <path fill="#000" d="M16.184 25.218c-5.024 0-8.967-3.987-8.967-9.003s3.943-9.003 8.967-9.003c4.834 0 8.84 3.987 8.84 9.003s-4.006 9.003-8.84 9.003M31.038.176h-5.973v2.608C22.54 1.134 19.499.176 16.185.176 7.02.176 0 7.276 0 16.215c0 8.94 7.02 16.039 16.186 16.039 3.313 0 6.354-.958 8.879-2.608v2.608h5.972l.004-.004s1.237.03 1.269-1.242V1.465c0-1.32-1.272-1.289-1.272-1.289" mask="url(#y29nqzrz9b)"/>
                        </g>
                        <path fill="#000" d="M120.335 41.55c-5.094 0-9.091-3.923-9.091-8.86 0-4.935 3.997-8.858 9.091-8.858 4.9 0 8.963 3.923 8.963 8.859s-4.062 8.859-8.963 8.859m15.06-24.64h-6.056v2.565c-2.56-1.623-5.642-2.566-9.002-2.566-9.293 0-16.411 6.986-16.411 15.782s7.118 15.782 16.41 15.782c3.36 0 6.443-.943 9.003-2.567v2.567h6.056l.004-.003s1.254.028 1.286-1.223v-29.07c0-1.3-1.29-1.268-1.29-1.268M51.428 41.513c-5.094 0-9.092-3.945-9.092-8.908 0-4.962 3.998-8.906 9.092-8.906 4.9 0 8.963 3.944 8.963 8.906 0 4.963-4.062 8.908-8.963 8.908M60.432 0v19.318c-2.56-1.632-5.643-2.58-9.003-2.58-9.292 0-16.41 7.024-16.41 15.867 0 8.845 7.118 15.868 16.41 15.868 3.36 0 6.443-.948 9.003-2.58v2.58h6.056l.003-.003s1.255.028 1.287-1.23V5.346C67.778 2.32 60.432 0 60.432 0M156.453 27.325L149.526 16.909 140.074 16.909 140.074 17.099 151.209 32.691 140.074 48.283 140.074 48.473 149.526 48.473 156.454 38.057 163.381 48.473 172.833 48.473 172.833 48.283 161.698 32.691 172.833 17.099 172.833 16.909 163.381 16.909z" transform="translate(-509 -53) translate(478 53) translate(31) translate(0 .218)"/>
                    </g>
                </g>
            </g>
        </g>
    </g>
</svg>
